<svg width="96" height="32" viewBox="0 0 96 32" fill="none" xmlns="http://www.w3.org/2000/svg">
<path d="M11.582 7.41739C11.582 6.19514 11.3295 4.72857 11.9852 3.63571C13.0273 1.89892 15.0795 2.59685 16.2187 3.88597C17.0672 4.84608 17.8961 6.14101 18.1443 7.41739C18.358 8.51644 17.7871 9.53956 17.3657 10.5178C16.478 12.5786 14.9505 14.2886 14.0846 16.3572C13.6289 17.4457 12.146 20.3091 13.8343 20.9035C16.7174 21.9187 18.9788 19.4588 20.1325 17.1218C20.895 15.5772 20.8951 13.8419 21.1946 12.1752M21.1946 12.1752C21.2019 12.1348 21.2093 12.0944 21.2169 12.0541C21.5227 10.4377 21.6204 8.7684 21.9955 7.16713C22.143 6.53733 22.4019 5.40657 22.6458 4.37393M21.1946 12.1752C21.2089 11.8031 21.2169 11.4293 21.2169 11.0531C21.2169 9.39382 21.4891 7.75922 21.9746 6.17305C22.1548 5.58439 22.4103 4.98217 22.6458 4.37393M21.1946 12.1752C21.1092 14.3935 20.799 16.5499 20.6191 18.7763C20.5557 19.5612 20.2128 22.8915 21.8634 22.0227C24.8178 20.4678 25.2618 17.1797 25.944 14.2995C26.2788 12.8857 27.9426 16.0328 28.0364 16.6144C28.1477 17.304 28.1948 18.175 28.0295 18.8597C27.8761 19.4952 27.6139 20.1143 27.5985 20.7784C27.5565 22.5825 31.8714 19.5203 32.4021 19.0544C33.6605 17.9494 34.5284 15.9371 34.856 14.2995M22.6458 4.37393C23.0154 2.80916 23.3506 1.4697 23.212 2.44004C23.1198 3.08545 22.8939 3.73303 22.6458 4.37393ZM34.9811 14.0493C34.7642 16.6524 34.3555 19.3462 34.3555 21.9324M35.6068 17.9282C36.519 18.0111 37.3764 18.2209 38.2067 17.6501C39.1329 17.0133 39.7575 16.2153 40.4312 15.3491C40.5132 15.2437 40.6083 15.0889 40.7073 14.911M40.7073 14.911C40.8581 14.64 41.0181 14.3152 41.1555 14.0288M40.7073 14.911C40.7459 14.7989 40.7879 14.6877 40.8344 14.5775C40.9153 14.3858 41.0367 14.2071 41.1555 14.0288M40.7073 14.911C40.4945 15.5286 40.3862 16.1705 40.2088 16.802C39.8853 17.9536 39.8597 19.104 39.7083 20.2778C39.6573 20.6728 39.355 21.7901 39.8056 21.9949C40.1599 22.1559 40.6925 22.0574 41.0708 22.0574H43.1632C43.7412 22.0574 44.4857 22.1852 44.9915 21.9323M41.1555 14.0288C41.4169 13.4837 41.5963 13.0773 41.474 13.4444C41.4058 13.6489 41.2822 13.8386 41.1555 14.0288ZM51.4982 14.4246C51.4058 13.6858 47.8743 14.6166 47.4524 14.6748C46.0316 14.8708 45.192 16.9464 45.1236 18.1784C45.0406 19.6726 45.3651 21.5522 47.1465 21.835C48.0934 21.9853 48.9066 21.9891 49.6838 21.3623C50.263 20.8951 50.9113 20.1676 51.6233 19.9302M52.1238 12.4225C52.1238 13.1956 52.2489 13.9823 52.2489 14.7304C52.2489 15.6396 52.1238 16.5234 52.1238 17.4276C52.1238 18.9313 51.9987 20.4605 51.9987 21.9323M62.3116 15.1248C61.9899 14.9282 61.7362 14.6495 61.3946 14.4662C60.78 14.1365 60.0349 13.9738 59.3604 13.816C58.5272 13.621 57.6994 13.5757 56.8511 13.4908C55.3516 13.3409 53.7274 14.4796 53.1205 15.8334C52.8286 16.4846 52.694 16.9987 52.6162 17.7091C52.556 18.2578 52.5236 18.759 52.712 19.2889C52.8882 19.7844 53.0282 20.4254 53.3081 20.8687C53.829 21.6934 54.7504 22.3027 55.7257 22.4318C56.6317 22.5517 57.6205 22.5527 58.5351 22.5527C59.7917 22.5527 60.702 22.2848 61.8155 21.7357C63.007 21.1481 64.4843 20.5497 65.3878 19.5348C65.4929 19.4167 65.5998 19.2931 65.7063 19.1645M65.7063 19.1645C66.3932 18.3359 67.0663 17.3045 67.1718 16.2502C67.2412 15.5554 67.1233 14.847 67.1926 14.1536C67.2401 13.6785 67.2248 14.1072 67.0801 14.3912C66.5656 15.4004 66.2332 16.4991 65.9588 17.5966C65.8316 18.1052 65.752 18.6316 65.7063 19.1645ZM65.7063 19.1645C65.6274 20.0855 65.6501 21.0258 65.7045 21.9274C65.7168 22.1307 65.6945 23.4251 65.9546 23.5197C66.389 23.6776 67.5088 22.5985 67.7803 22.3776C69.2269 21.2009 70.6898 20.1241 71.65 18.5227M71.65 18.5227C71.7264 18.3952 71.7996 18.2645 71.8694 18.1301C72.3597 17.1858 72.4405 15.9914 72.4405 14.9456C72.4405 14.8564 72.4762 14.5208 72.3946 14.7747C72.1834 15.4318 71.9952 16.0765 71.8736 16.7588C71.7695 17.3429 71.7105 17.9332 71.65 18.5227ZM71.65 18.5227C71.6072 18.9405 71.5636 19.358 71.5026 19.7724C71.4216 20.3232 71.2025 22.1984 71.8402 22.611C73.5572 23.722 75.9767 21.435 76.9005 20.1851C77.0357 20.0021 77.1729 19.8151 77.3088 19.6243M77.3088 19.6243C78.4288 18.0518 79.466 16.2228 78.6679 14.3162C78.6436 14.2583 78.5186 13.8607 78.4428 13.9744C78.0773 14.5226 77.9334 15.3512 77.7717 15.971C77.4598 17.1665 77.369 18.396 77.3088 19.6243ZM77.3088 19.6243C77.306 19.6806 77.3033 19.7369 77.3007 19.7933C77.2416 21.0468 77.0539 22.2971 77.0214 23.5489C77.0044 24.2019 76.9261 24.945 77.0256 25.5913C77.059 25.809 77.3478 25.3005 77.3549 25.2912C77.898 24.5827 78.5259 23.9216 79.168 23.3029C80.3104 22.2025 81.5573 21.2127 82.7069 20.1184C83.0655 19.777 83.5357 19.3884 83.9447 18.9623M83.9447 18.9623C84.3018 18.5904 84.6125 18.19 84.7619 17.7675C85.0049 17.0804 84.9075 16.3022 84.8192 15.5963L84.8161 15.5708C84.8087 15.5122 84.7563 15.0053 84.7285 14.9914C84.6137 14.934 84.2808 16.2701 84.2617 16.3795C84.1125 17.2336 84.0105 18.0965 83.9447 18.9623ZM83.9447 18.9623C83.8736 19.8996 83.8448 20.8404 83.8448 21.7774C83.8448 22.763 83.8237 23.7514 83.849 24.7368C83.8682 25.4871 83.9949 26.2282 83.9949 26.9794M78.6678 8.22217C79.2471 9.02805 79.9685 10.0764 80.9854 10.348C81.9307 10.6005 83.112 10.5163 84.0407 10.2396C84.558 10.0855 85.0085 9.79403 85.4955 9.57269M2.15088 24.7822C2.63614 24.7418 3.1867 24.5375 3.66037 24.4163C4.90031 24.0991 6.12279 23.9508 7.3998 23.8788C10.0568 23.7291 12.7673 23.8375 15.4276 23.856C18.927 23.8803 22.4274 24.229 25.9254 24.2676C30.3671 24.3167 34.8284 24.4168 39.2593 24.7308C44.87 25.1284 50.4485 25.9267 56.0696 26.2174C59.8044 26.4106 63.527 26.6617 67.2593 26.8921C72.4775 27.2142 77.6875 27.7475 82.8631 28.4816C85.2092 28.8144 87.5377 29.2208 89.8731 29.6195C91.2291 29.851 92.6088 29.9676 93.9556 30.237" stroke="#0029FF" stroke-width="3" stroke-linecap="round"/>
</svg>
